<?xml version="1.0" standalone="no"?>
<!DOCTYPE svg PUBLIC "-//W3C//DTD SVG 20010904//EN"
 "http://www.w3.org/TR/2001/REC-SVG-20010904/DTD/svg10.dtd">
<svg version="1.0" xmlns="http://www.w3.org/2000/svg"
 width="115.000000pt" height="115.000000pt" viewBox="0 0 115.000000 115.000000"
 preserveAspectRatio="xMidYMid meet">
<metadata>
Created by potrace 1.14, written by Peter Selinger 2001-2017
</metadata>
<g transform="translate(0.000000,115.000000) scale(0.100000,-0.100000)"
fill="#000000" stroke="none">
<path d="M499 787 c-31 -51 -100 -164 -154 -252 -122 -200 -138 -225 -148
-225 -9 0 53 121 67 131 5 4 5 12 2 18 -4 6 -3 11 2 11 6 0 13 12 16 27 4 14
21 46 37 70 17 23 26 43 22 43 -4 0 -1 6 8 13 24 19 69 89 63 99 -3 5 -12 4
-19 -2 -7 -6 -25 -8 -39 -4 -19 4 -26 2 -26 -9 0 -8 7 -17 15 -21 8 -3 15 -10
15 -15 0 -7 -10 -6 -27 2 -21 9 -27 9 -30 0 -3 -7 -3 -15 -1 -18 2 -2 -8 -12
-21 -21 l-24 -17 24 -18 c24 -19 16 -26 -10 -10 -10 7 -20 2 -34 -15 -10 -13
-22 -22 -27 -19 -4 3 -53 -65 -109 -150 l-101 -155 0 -78 c0 -54 5 -84 16
-100 14 -20 14 -22 0 -22 -9 0 -16 -5 -16 -11 0 -7 37 -10 113 -9 61 0 186 2
277 3 91 1 298 2 460 2 l296 -1 2 121 2 120 -44 65 c-24 36 -59 89 -76 118
-18 30 -50 72 -71 95 -22 22 -39 43 -39 47 0 4 -7 13 -15 20 -15 13 -20 5 -16
-27 2 -15 -25 -17 -34 -3 -3 6 1 13 9 16 9 3 16 11 16 16 0 6 -7 8 -14 5 -11
-4 -13 -1 -10 11 4 12 -1 10 -15 -7 l-21 -23 29 -33 c16 -18 44 -64 62 -102
18 -37 45 -86 60 -108 44 -66 109 -186 109 -200 0 -21 -16 -27 -55 -19 -20 3
-35 12 -35 20 0 8 -7 14 -15 14 -8 0 -15 -5 -15 -11 0 -6 -6 -9 -14 -6 -8 3
-16 2 -18 -2 -2 -7 -674 -18 -739 -12 -34 2 -30 33 13 100 127 200 368 605
368 617 0 29 -17 11 -71 -79z m-164 -137 c3 -5 1 -10 -4 -10 -6 0 -11 5 -11
10 0 6 2 10 4 10 3 0 8 -4 11 -10z m580 -90 c-3 -5 -11 -10 -16 -10 -6 0 -7 5
-4 10 3 6 11 10 16 10 6 0 7 -4 4 -10z m40 -40 c-3 -5 -14 -10 -23 -10 -15 0
-15 2 -2 10 20 13 33 13 25 0z m25 -25 c0 -2 -10 -10 -22 -16 -21 -11 -22 -11
-9 4 13 16 31 23 31 12z m10 -29 c0 -2 -7 -7 -16 -10 -8 -3 -12 -2 -9 4 6 10
25 14 25 6z m-850 -256 c-6 -11 -13 -20 -16 -20 -2 0 0 9 6 20 6 11 13 20 16
20 2 0 0 -9 -6 -20z"/>
<path d="M810 731 c0 -4 -16 -7 -35 -4 -20 2 -35 -1 -35 -7 0 -5 6 -10 13 -10
6 0 20 -18 30 -40 20 -44 33 -49 53 -22 19 25 17 49 -6 55 -13 3 -18 10 -14
21 3 9 3 16 0 16 -3 0 -6 -4 -6 -9z m18 -59 c2 -7 -3 -12 -12 -12 -9 0 -16 7
-16 16 0 17 22 14 28 -4z"/>
<path d="M611 670 c-2 -25 -2 -25 -17 -5 -15 19 -16 18 -9 -13 6 -32 6 -32
-20 -22 -23 9 -26 8 -21 -5 5 -13 2 -14 -17 -4 l-22 12 20 -23 20 -23 -27 5
c-23 4 -25 3 -15 -14 15 -22 19 -22 48 1 51 40 107 34 94 -10 -4 -11 -2 -19 3
-19 13 0 31 22 29 35 -1 6 8 14 21 20 12 5 22 12 22 15 0 8 -43 6 -57 -3 -16
-10 -26 9 -17 36 6 19 5 20 -9 9 -13 -11 -16 -10 -20 10 -4 22 -4 22 -6 -2z"/>
<path d="M550 659 c7 -11 14 -19 16 -16 7 7 -7 37 -17 37 -6 0 -5 -9 1 -21z"/>
<path d="M662 663 c-17 -30 -15 -37 4 -19 8 9 14 22 11 29 -2 7 -8 4 -15 -10z"/>
<path d="M715 580 c-3 -5 -1 -10 4 -10 6 0 11 5 11 10 0 6 -2 10 -4 10 -3 0
-8 -4 -11 -10z"/>
<path d="M440 540 c-9 -16 -7 -24 6 -38 17 -16 18 -16 11 1 -4 11 1 25 13 37
20 20 20 20 0 20 -10 0 -24 -9 -30 -20z"/>
<path d="M573 553 c9 -2 17 -8 18 -11 8 -49 5 -72 -9 -72 -13 0 -12 -2 3 -14
17 -12 14 -14 -29 -20 -35 -6 -46 -11 -42 -22 4 -10 -2 -14 -19 -14 -18 0 -23
-5 -22 -20 1 -13 6 -19 15 -15 8 3 12 0 9 -7 -2 -7 2 -21 11 -30 13 -16 13
-18 -2 -24 -9 -3 -16 -13 -16 -21 0 -8 -8 -13 -17 -12 -10 1 -29 0 -43 0 l-25
-2 23 -10 c13 -5 28 -7 32 -4 10 6 15 -1 24 -37 4 -17 2 -28 -6 -31 -7 -2 -2
-2 12 0 53 8 80 25 80 49 0 13 -5 24 -11 24 -6 0 -8 -8 -4 -19 7 -22 -27 -46
-51 -37 -25 10 -6 76 32 114 19 17 30 32 24 32 -15 0 -12 17 5 24 8 3 14 2 14
-2 -3 -18 2 -32 12 -32 5 0 8 4 5 9 -3 5 8 11 25 13 36 6 38 3 46 -63 5 -46 4
-52 -11 -46 -13 5 -15 2 -10 -18 3 -14 1 -32 -5 -39 -10 -11 -8 -16 9 -21 12
-4 24 -4 27 -1 4 3 12 1 20 -6 7 -6 17 -8 20 -4 4 4 3 10 -3 14 -6 4 -14 16
-19 27 -8 19 -9 19 -12 -2 -3 -13 -10 -23 -17 -23 -9 0 -12 9 -8 25 6 31 19
40 37 25 10 -8 16 -7 23 6 7 12 3 22 -15 40 -15 15 -23 35 -23 58 0 19 -4 38
-10 41 -5 3 -10 15 -10 26 0 30 24 17 28 -14 4 -31 17 -36 25 -8 2 11 -3 24
-14 32 -11 7 -19 23 -19 34 0 17 -3 16 -19 -9 -11 -17 -18 -33 -15 -37 2 -5
-5 -13 -17 -20 -21 -11 -22 -11 -17 79 4 85 3 91 -16 96 -12 3 -25 5 -31 5 -5
-1 -2 -3 8 -6z m-3 -134 c0 -5 5 -7 10 -4 6 3 10 -1 10 -10 0 -9 -7 -15 -16
-13 -16 3 -27 -10 -39 -46 -4 -13 -9 -16 -16 -9 -14 14 22 92 44 93 4 0 7 -5
7 -11z m131 -162 c-1 -12 -15 -9 -19 4 -3 6 1 10 8 8 6 -3 11 -8 11 -12z"/>
<path d="M713 548 c15 -5 27 -14 27 -19 0 -6 -4 -7 -10 -4 -5 3 -10 2 -10 -2
0 -5 12 -16 28 -25 l27 -17 -30 -1 c-24 -1 -26 -3 -11 -9 10 -4 25 -20 32 -37
8 -16 12 -21 9 -11 -4 17 10 24 18 10 15 -28 16 -61 1 -67 -22 -9 -44 11 -44
40 0 12 -3 25 -7 27 -5 3 -8 -12 -8 -33 -1 -27 3 -36 12 -33 21 8 15 -11 -8
-26 -18 -11 -23 -11 -31 1 -8 10 -9 9 -5 -3 3 -9 1 -21 -5 -27 -7 -7 -3 -12
11 -17 12 -3 19 -11 16 -16 -3 -5 1 -6 9 -3 10 4 16 1 16 -9 0 -8 6 -17 13
-20 8 -3 5 -12 -12 -30 -23 -25 -23 -26 -2 -20 12 3 28 17 36 32 12 23 14 24
20 8 4 -9 5 -23 2 -30 -3 -7 3 -13 14 -14 16 -2 17 1 6 18 -9 15 -9 23 1 39 6
11 12 23 12 27 0 5 -4 2 -9 -6 -7 -12 -16 -12 -43 -4 -31 10 -32 12 -10 18 23
8 29 20 13 29 -5 3 -14 -1 -21 -9 -16 -19 -39 -19 -36 0 4 27 21 36 73 38 l51
2 -3 40 c-2 22 -4 43 -4 47 -1 4 -17 14 -36 22 -28 12 -35 21 -35 42 0 19 -4
25 -16 20 -9 -3 -12 -2 -9 5 11 16 -15 39 -44 38 l-26 -1 28 -10z"/>
<path d="M383 473 c-26 -18 -30 -45 -8 -63 8 -7 12 -17 9 -22 -3 -5 3 -4 14 3
13 8 20 22 19 38 -2 18 4 26 17 29 14 3 17 0 13 -11 -3 -9 -1 -17 5 -19 6 -2
4 -10 -6 -20 -17 -18 -20 -28 -8 -28 4 0 16 14 25 30 10 17 14 30 10 30 -5 0
-13 10 -18 23 -12 27 -42 32 -72 10z"/>
<path d="M322 358 c-24 -31 -40 -75 -32 -88 5 -8 5 -19 -1 -26 -25 -31 16 -60
97 -68 l59 -6 -62 18 c-34 9 -67 22 -73 28 -15 15 -1 47 18 39 8 -3 21 0 28 6
10 8 14 8 14 0 0 -6 6 -11 13 -11 8 0 14 7 14 16 0 12 -7 15 -32 11 -24 -4
-34 -1 -45 16 -9 15 -10 22 -1 25 6 2 8 8 5 13 -3 6 0 16 6 24 7 8 10 15 7 15
-2 0 -9 -6 -15 -12z"/>
<path d="M431 316 c-10 -12 -7 -15 18 -14 25 1 29 4 20 15 -15 17 -24 17 -38
-1z"/>
<path d="M859 323 c-1 -5 -1 -11 0 -15 0 -4 -4 -19 -9 -33 -10 -27 6 -79 22
-69 5 3 4 12 -3 20 -19 23 -4 26 16 4 14 -16 15 -22 5 -35 -7 -8 -18 -15 -26
-15 -7 0 -16 -4 -19 -10 -12 -20 24 -10 52 14 l28 24 -26 29 c-21 22 -26 35
-22 61 3 20 1 32 -6 32 -6 0 -12 -3 -12 -7z"/>
<path d="M610 245 c-14 -16 -7 -45 11 -45 8 0 8 4 0 13 -8 10 -7 17 1 25 6 6
9 14 6 17 -3 3 -11 -1 -18 -10z"/>
<path d="M220 210 c-7 -13 -7 -20 -1 -20 6 0 15 9 21 20 7 13 7 20 1 20 -6 0
-15 -9 -21 -20z"/>
<path d="M250 190 c-12 -7 -10 -9 7 -7 12 0 19 5 17 9 -6 10 -6 10 -24 -2z"/>
<path d="M740 170 c-11 -7 -1 -10 35 -10 36 0 46 3 35 10 -8 5 -24 10 -35 10
-11 0 -27 -5 -35 -10z"/>
</g>
</svg>
